<?xml version="1.0" encoding="utf-8"?>
<!-- Generator: Adobe Illustrator 24.0.1, SVG Export Plug-In . SVG Version: 6.00 Build 0)  -->
<svg version="1.1" id="Calque_1" xmlns="http://www.w3.org/2000/svg" xmlns:xlink="http://www.w3.org/1999/xlink" x="0px" y="0px"
	 viewBox="0 0 185.4 41.6" style="enable-background:new 0 0 185.4 41.6;" xml:space="preserve">
<style type="text/css">
	.st0{fill:none;}
	.st1{clip-path:url(#SVGID_4_);fill:#231F20;}
	.st2{clip-path:url(#SVGID_6_);fill:#2E3191;}
	.st3{fill:#1D255B;}
	.st4{fill:#4CAA48;}
	.st5{fill:#231F20;}
	.st6{clip-path:url(#SVGID_8_);fill:#1D255B;stroke:#FFFFFF;stroke-miterlimit:10;}
	.st7{fill:none;stroke:#FFFFFF;stroke-miterlimit:10;}
	.st8{fill:#FFFFFF;}
</style>
<rect id="backgroundrect" y="-1" class="st0" width="185.4" height="41.6"/>
<g>
	<title>Layer 1</title>
	<g id="svg_1">
		<g id="svg_2">
			<g>
				<defs>
					<rect id="SVGID_2_" x="-16.7" y="-7.7" width="87.7" height="63.3"/>
				</defs>
				<clipPath id="SVGID_4_">
					<use xlink:href="#SVGID_2_"  style="overflow:visible;"/>
				</clipPath>
				<path id="svg_4" class="st1" d="M-13.5,55.3C-13.5,55.3-13.5,55.2-13.5,55.3L-13.5,55.3L-13.5,55.3"/>
			</g>
		</g>
		<g id="svg_5">
			<g>
				<defs>
					<rect id="SVGID_5_" x="-16.7" y="-7.7" width="87.7" height="63.3"/>
				</defs>
				<clipPath id="SVGID_6_">
					<use xlink:href="#SVGID_5_"  style="overflow:visible;"/>
				</clipPath>
				<path id="svg_7" class="st2" d="M-16.6,55.3C-16.6,55.3-16.6,55.2-16.6,55.3L-16.6,55.3L-16.6,55.3"/>
			</g>
		</g>
	</g>
	<path id="svg_8" class="st3" d="M73.9,11.6c0.2,0.8,0.4,1.8,0.6,3.2c0,0.1-0.1,0.1-0.1,0.1s-0.1,0-0.2-0.1
		c-0.5-0.7-0.9-1.3-1.3-1.7s-0.9-0.7-1.3-0.8c-0.4-0.2-1.2-0.2-2.2-0.2s-1.8,0.1-2.3,0.2C67,12.4,67,12.5,67,12.7c0,0,0,0.1,0,0.3
		c-0.1,0.5-0.1,2-0.1,4.4c0,0.1,0,0.2,0,0.4c0.5,0,0.9,0,1,0c0.8,0,1.5-0.1,1.8-0.4c0.4-0.3,0.7-0.8,1-1.6c0-0.1,0.1-0.2,0.2-0.2
		s0.2,0.1,0.2,0.3v0.4C71,16.8,71,17.4,71,18c0,0.9,0,1.7,0,2.5c0,0.2-0.1,0.3-0.2,0.3s-0.2-0.1-0.2-0.2c-0.1-0.8-0.4-1.4-0.9-1.7
		c-0.5-0.3-1.4-0.5-2.9-0.5c0,0.5,0,1.3,0,2.4c0,1.4,0,2.3,0.2,2.7c0.1,0.4,0.3,0.7,0.7,0.9c0.4,0.2,1,0.3,1.9,0.3
		c2.6,0,4.3-0.9,5.1-2.7c0.1-0.2,0.2-0.3,0.3-0.3c0.1,0,0.2,0.1,0.2,0.2s0,0.2,0,0.3c0,0.1-0.1,0.6-0.3,1.4c0,0.2-0.2,0.7-0.4,1.6
		h-4.2c-0.6,0-1.5,0-2.7-0.1c-1.2,0-2.2-0.1-3.1-0.1s-1.4,0-1.4-0.1L63,24.8c0-0.1,0.1-0.2,0.3-0.2c0.7,0,1.2-0.2,1.5-0.6
		c0.2-0.4,0.3-1.4,0.3-2.9V19v-1.9c0-0.4,0-1.1-0.1-2.2c0-1.1-0.1-1.7-0.1-1.9s-0.1-0.3-0.3-0.5c-0.2-0.2-0.5-0.3-1.1-0.5
		c-0.2,0-0.3-0.1-0.3-0.2c0-0.1,0.1-0.2,0.3-0.2l2.1,0.1c0.7,0,2.5,0,5.3,0C72.9,11.6,73.9,11.6,73.9,11.6"/>
	<path id="svg_9" class="st3" d="M82.8,11.5h2.1c2.6,0,4.6,0.6,6,1.9c1.3,1.3,2,2.9,2,4.8c0,1.4-0.3,2.6-1,3.6
		c-0.6,1-1.5,1.8-2.4,2.3c-1,0.5-2.3,0.8-3.9,0.8c-0.4,0-0.8,0-1.4-0.1c-1-0.1-1.6-0.1-1.7-0.1c-2.2,0-3.5,0-3.9,0.1
		c-0.2,0-0.3-0.1-0.3-0.2s0-0.1,0.1-0.2c0.1,0,0.3-0.1,0.7-0.1c0.5-0.1,0.9-0.3,1.1-0.7c0.2-0.4,0.4-1.5,0.4-3.3l0.2-5.3
		c0-0.6,0-1.2-0.1-1.8s-0.2-0.9-0.4-1.1c-0.2-0.2-0.5-0.3-0.9-0.3c-0.3,0-0.4-0.1-0.4-0.2c0-0.1,0.1-0.2,0.2-0.2s0.5,0,1.2,0.1
		C81.2,11.5,82,11.5,82.8,11.5 M82.4,21.3c0,0.9,0.1,1.5,0.2,1.9s0.4,0.7,0.8,0.9c0.4,0.2,1,0.4,1.9,0.4c1.2,0,2.2-0.3,3-0.9
		s1.4-1.4,1.8-2.3s0.6-2,0.6-3.1c0-1.6-0.5-3.1-1.5-4.4s-2.5-1.9-4.5-1.9c-0.9,0-1.4,0-1.6,0.1s-0.2,0.2-0.2,0.5s0,0.7-0.1,1.4
		c-0.1,1-0.1,1.7-0.1,2.3L82.6,19C82.5,20.3,82.4,21.1,82.4,21.3"/>
	<path id="svg_10" class="st3" d="M114.9,24.8c-0.3,0-0.5,0-0.6,0c-0.2,0-0.7,0-1.4,0c-0.7,0-2,0-4.1,0h-2.6c-0.1,0-0.4,0-1,0
		s-1,0-1.1,0c-0.5,0-0.8-0.1-0.8-0.2s0.1-0.2,0.3-0.2c0.7,0,1.1-0.2,1.4-0.4c0.3-0.2,0.4-0.6,0.5-1s0.1-1.7,0.1-3.6v-3.6
		c0-1.2-0.1-2-0.2-2.5s-0.3-0.8-0.6-1.1c-0.3-0.2-0.7-0.4-1.1-0.4c-0.2,0-0.3-0.1-0.3-0.2s0.1-0.2,0.3-0.2c0,0,0.1,0,0.3,0
		c1.1,0.1,2.3,0.1,3.8,0.1h1.8c0.2,0,0.3,0.1,0.3,0.2c0,0.1-0.1,0.2-0.3,0.2c-0.5,0-0.9,0.1-1.2,0.3c-0.3,0.2-0.5,0.4-0.6,0.7
		c-0.1,0.2-0.2,0.7-0.2,1.4l-0.1,4.8v2.7c0,0.8,0,1.4,0.1,1.6s0.2,0.5,0.4,0.7c0.2,0.2,0.6,0.3,1.2,0.3c0,0,0.7,0,1.8-0.1
		c0.9-0.1,1.7-0.6,2.5-1.4c0.7-0.8,1.2-1.5,1.5-2.1c0.1-0.2,0.2-0.3,0.3-0.3c0.1,0,0.2,0.1,0.2,0.2c0,0.2-0.1,0.9-0.3,2
		C115,24,114.9,24.6,114.9,24.8"/>
	<path id="svg_11" class="st3" d="M119.2,11.4h1.8h2.8c0.3,0,0.5,0.1,0.5,0.2c0,0.1-0.1,0.2-0.3,0.2c-0.7,0.1-1.2,0.4-1.4,0.8
		c-0.2,0.4-0.3,2.1-0.3,4.9c0,1,0,2.2,0.1,3.5s0.1,2.1,0.2,2.3s0.2,0.5,0.4,0.6c0.2,0.2,0.5,0.3,1,0.3c0.2,0,0.3,0.1,0.3,0.2
		s-0.1,0.2-0.2,0.2h-2.5h-2.1c-0.2,0-0.3-0.1-0.3-0.2s0.1-0.2,0.3-0.2c0.6,0,1-0.2,1.1-0.6s0.2-1.7,0.2-3.9c0-2.1,0-3.8-0.1-5.1
		c0-1.3-0.2-2.1-0.3-2.4s-0.5-0.5-1-0.5c-0.2,0-0.3-0.1-0.3-0.2C119,11.5,119,11.4,119.2,11.4"/>
	<path id="svg_12" class="st3" d="M141.2,15.7c-0.1,0-0.2-0.1-0.3-0.3c-0.5-1.2-1.3-2.2-2.2-2.8s-1.9-1-2.9-1
		c-0.8,0-1.7,0.3-2.4,0.8s-1.4,1.3-1.9,2.4s-0.7,2.2-0.7,3.4c0,1.7,0.5,3.2,1.5,4.4c1,1.2,2.3,1.9,3.8,1.9c0.5,0,1-0.1,1.4-0.3
		c0.4-0.2,0.7-0.4,1.1-0.7c0.3-0.3,0.5-0.6,0.6-0.7s0.1-0.6,0.1-1.2c0-1.1-0.2-1.8-0.4-2.2c-0.3-0.3-0.8-0.5-1.4-0.5h-0.3
		c-0.2,0-0.3-0.1-0.3-0.2c0-0.2,0.1-0.2,0.3-0.2h0.5h2.3l2.8-0.1c0.2,0,0.2,0.1,0.2,0.2s-0.1,0.2-0.3,0.2c-0.4,0-0.8,0.1-1,0.3
		s-0.4,0.3-0.5,0.5s-0.1,0.5-0.1,0.9c0,1.6,0,2.4-0.1,2.6s-0.7,0.5-1.9,1.1c-1.2,0.5-2.4,0.8-3.5,0.8c-2,0-3.7-0.6-5.1-1.9
		c-1.4-1.3-2.1-2.9-2.1-4.8c0-1.3,0.3-2.5,1-3.6s1.6-1.9,2.7-2.5c1.2-0.6,2.4-0.9,3.5-0.9s2.3,0.3,3.6,1c0.4,0.2,0.6,0.3,0.8,0.3
		s0.4-0.1,0.5-0.3s0.2-0.2,0.3-0.2c0.2,0,0.2,0.2,0.3,0.6c0,0.6,0.1,1.6,0.3,2.8c0,0.1,0,0.1,0,0.2
		C141.4,15.7,141.4,15.7,141.2,15.7"/>
	<path id="svg_13" class="st3" d="M156.7,17.8l0.1-2.8c0-1.2-0.1-2-0.4-2.4c-0.2-0.4-0.7-0.6-1.2-0.6c-0.3,0-0.5-0.1-0.5-0.2
		c0-0.1,0.1-0.2,0.3-0.2l2.9,0.1h2.5c0.2,0,0.3,0.1,0.3,0.2c0,0.1-0.1,0.2-0.2,0.2c-0.5,0-0.9,0.1-1.2,0.2c-0.3,0.2-0.5,0.4-0.6,0.8
		c-0.1,0.4-0.2,1.4-0.2,3.1c-0.1,1.7-0.1,2.9-0.1,3.7v2.5c0,0.8,0.1,1.3,0.2,1.5c0.2,0.2,0.4,0.4,0.7,0.5s0.6,0.2,0.9,0.2
		c0.2,0,0.3,0.1,0.3,0.2s-0.1,0.2-0.3,0.2l-3.1-0.1l-2,0.1c-0.2,0-0.3-0.1-0.3-0.2s0.1-0.2,0.3-0.2c0.5,0,0.9-0.1,1-0.2
		c0.2-0.1,0.3-0.3,0.4-0.6c0.1-0.3,0.2-0.8,0.2-1.5v-3.7c-0.6,0-1.2-0.1-1.8-0.1c-2.6,0-4.2,0-4.9,0.1c-0.1,1.3-0.1,2.4-0.1,3.2
		c0,0.9,0,1.5,0.1,1.7s0.2,0.4,0.4,0.6s0.5,0.3,0.9,0.4c0.2,0,0.3,0.1,0.3,0.2s-0.1,0.2-0.2,0.2c0,0-0.1,0-0.2,0
		c-0.4,0-1.1-0.1-2.3-0.1s-2,0-2.3,0.1c-0.1,0-0.1,0-0.2,0c-0.2,0-0.2,0-0.2-0.2c0-0.1,0.1-0.2,0.3-0.2c0.5-0.1,0.9-0.2,1.1-0.4
		c0.2-0.2,0.4-1.1,0.5-2.6s0.1-3.3,0.1-5.4c0-1.7-0.1-2.8-0.2-3.3c-0.2-0.4-0.6-0.7-1.2-0.7c-0.1,0-0.2-0.1-0.2-0.2
		c0-0.1,0.1-0.2,0.4-0.2l4.1-0.1c0.3,0,0.5,0,0.5,0c0.1,0,0.1,0.1,0.1,0.2c0,0.1-0.1,0.2-0.3,0.2c-0.7,0.1-1.1,0.2-1.2,0.4
		c-0.1,0.2-0.2,1.3-0.2,3.3c0,0.2,0,0.9,0,2.2c0.7,0.1,1.5,0.1,2.4,0.1C153.6,17.9,155,17.9,156.7,17.8"/>
	<path id="svg_14" class="st3" d="M169.6,12.1c-0.5,0-0.9,0-1.1,0c-1.4,0-2.5,0.3-3.2,0.9c-0.7,0.6-1,1.2-1.1,1.6
		c0,0.2-0.1,0.3-0.3,0.3c-0.1,0-0.1,0-0.2-0.1c0-0.8,0.2-1.9,0.4-3.2c0.3,0,0.5,0,0.6,0c0.5,0,1.2,0,2.1,0.1
		c0.9,0.1,2.4,0.1,4.3,0.1c2,0,3.3,0,3.9-0.1c0.6-0.1,1.3-0.1,2.3-0.1c0.1,0.5,0.1,1,0.2,1.5c0,0.6,0.1,1,0.1,1.3c0,0.1,0,0.1,0,0.2
		c0,0.2-0.1,0.2-0.2,0.2c-0.1,0-0.2,0-0.2-0.1c-0.1-0.1-0.2-0.2-0.4-0.6c-0.3-0.5-0.7-1-1.1-1.2c-0.4-0.3-0.8-0.5-1.3-0.5
		c-0.5-0.1-1.4-0.1-2.8-0.2c-0.1,1-0.1,2.2-0.1,3.5c0,4.3,0.1,6.9,0.3,7.7c0.2,0.8,0.8,1.2,2,1.2c0.3,0,0.4,0.1,0.4,0.2
		s-0.1,0.2-0.4,0.2h-6.2c-0.2,0-0.2-0.1-0.2-0.2s0.2-0.2,0.5-0.2c0.5,0,1-0.2,1.3-0.4c0.3-0.3,0.5-0.7,0.6-1.2c0-0.5,0.1-2,0.1-4.4
		C169.8,16.2,169.8,14.1,169.6,12.1"/>
	<path id="svg_15" class="st3" d="M51.4,21.5c0.9-2.7,2.1-5.7,4.4-10h4c0.1,0,0.2,0.1,0.2,0.2s-0.1,0.2-0.2,0.2
		c-0.7,0.1-1.2,0.2-1.4,0.4s-0.4,0.6-0.5,1.1c-0.1,0.5-0.1,1.5-0.2,3c-0.1,1.4-0.1,2.7-0.1,3.6c0,1.9,0,2.9,0,3.2
		c0,0.3,0.1,0.5,0.3,0.7s0.6,0.3,1.2,0.4c0.2,0,0.3,0.1,0.3,0.2s-0.1,0.2-0.3,0.2h-3.9h-1c-0.2,0-0.3-0.1-0.3-0.2s0.1-0.2,0.2-0.2
		c0.6-0.1,0.9-0.2,1.1-0.3c0.2-0.1,0.3-0.4,0.4-0.7c0.1-0.3,0.1-1.2,0.1-2.6l0.2-4.9l0.2-2.4c0-0.2,0-0.3-0.1-0.3s-0.1,0.1-0.2,0.2
		l-2,4c-1.3,2.5-2,4.1-2.4,4.8L51,22.7"/>
	<path id="svg_16" class="st3" d="M42.5,11.3c-0.1,0-0.3,0-0.4,0c-0.2,0-0.3,0.1-0.3,0.2c0,0.1,0.1,0.2,0.4,0.2
		c0.6,0.1,1,0.3,1.4,0.7c0.3,0.4,0.5,1.1,0.5,2.2L44,19.1v1.8c0,1.5-0.2,2.4-0.5,2.9s-0.9,0.6-1.6,0.6c-0.2,0-0.3,0.1-0.3,0.2
		s0,0.1,0.1,0.2c1-0.1,1.8-0.1,2.4-0.1h0.1V11.4L42.5,11.3z"/>
	<path id="svg_17" class="st3" d="M46,11.3c0.1,0,0.3,0,0.4,0c0.2,0,0.3,0.1,0.3,0.2c0,0.1-0.1,0.2-0.4,0.2c-0.6,0.1-1,0.3-1.4,0.7
		c-0.3,0.4-0.5,1.1-0.5,2.2l0.1,4.5v1.8c0,1.5,0.2,2.4,0.5,2.9c0.3,0.4,0.8,0.6,1.5,0.7c0.2,0,0.3,0.1,0.3,0.2s0,0.1-0.1,0.2
		c-1-0.1-1.8-0.1-2.4-0.1h-0.1V11.4L46,11.3z"/>
	<rect id="svg_18" x="44.1" y="11.4" class="st3" width="0.2" height="13.3"/>
	<path id="svg_19" class="st4" d="M46.2,12.9c0,0-0.5-1.3,0.4-0.5c0.4,0.3,2,1.9,3,3.5c1.5,2.4,2.4,5.2,0.2,6.1c0,0-4,1-2.6-4.8
		C47.2,17.2,47.9,14.5,46.2,12.9"/>
	<g id="svg_20">
		<path id="svg_21" class="st5" d="M42.4,33.7h3v0.6h-2.2v1.8h2.1v0.6h-2.1v2.5h-0.8C42.4,39.2,42.4,33.7,42.4,33.7z"/>
		<path id="svg_22" class="st5" d="M46.6,37.5L46,39.2h-0.7l1.9-5.5h0.9l1.9,5.5h-0.8l-0.6-1.7H46.6z M48.4,36.9l-0.5-1.5
			c-0.1-0.4-0.2-0.7-0.3-1l0,0c-0.1,0.3-0.2,0.7-0.3,1L46.8,37L48.4,36.9L48.4,36.9z"/>
		<path id="svg_23" class="st5" d="M50.7,33.8c0.3-0.1,0.8-0.1,1.3-0.1c0.7,0,1.2,0.1,1.5,0.4c0.3,0.2,0.5,0.5,0.5,1s-0.4,1-0.9,1.2
			l0,0c0.5,0.1,1.1,0.5,1.1,1.4c0,0.5-0.2,0.8-0.5,1.1c-0.4,0.3-1,0.5-1.9,0.5c-0.5,0-0.9,0-1.1-0.1C50.7,39.2,50.7,33.8,50.7,33.8z
			 M51.4,36H52c0.7,0,1.2-0.4,1.2-0.9c0-0.6-0.5-0.9-1.2-0.9c-0.3,0-0.5,0-0.6,0C51.4,34.3,51.4,36,51.4,36z M51.4,38.7
			c0.1,0,0.3,0,0.6,0c0.7,0,1.4-0.3,1.4-1.1c0-0.7-0.6-1-1.4-1h-0.6V38.7L51.4,38.7z"/>
		<path id="svg_24" class="st5" d="M55.1,33.8c0.4-0.1,0.9-0.1,1.4-0.1c0.8,0,1.2,0.1,1.6,0.5c0.3,0.2,0.4,0.6,0.4,1
			c0,0.7-0.5,1.2-1,1.4l0,0c0.4,0.1,0.7,0.5,0.8,1.1c0.2,0.8,0.3,1.3,0.4,1.5H58c-0.1-0.2-0.2-0.6-0.4-1.3s-0.5-1-1.1-1.1h-0.7v2.4
			h-0.7V33.8L55.1,33.8z M55.8,36.3h0.7c0.8,0,1.2-0.4,1.2-1c0-0.7-0.5-1-1.3-1c-0.3,0-0.6,0-0.7,0.1L55.8,36.3L55.8,36.3z"/>
		<path id="svg_25" class="st5" d="M60.1,33.7v5.5h-0.7v-5.5H60.1z"/>
		<path id="svg_26" class="st5" d="M65.2,39c-0.2,0.1-0.8,0.3-1.4,0.3c-1.5,0-2.7-1-2.7-2.8c0-1.7,1.2-2.9,2.8-2.9
			c0.7,0,1.1,0.1,1.3,0.2L65,34.4c-0.3-0.1-0.6-0.2-1.1-0.2c-1.3,0-2.1,0.8-2.1,2.2c0,1.3,0.8,2.2,2.1,2.2c0.4,0,0.9-0.1,1.2-0.2
			L65.2,39z"/>
		<path id="svg_27" class="st5" d="M67,37.5l-0.6,1.7h-0.7l1.9-5.5h0.8l1.9,5.5h-0.8l-0.6-1.7H67z M68.8,36.9l-0.6-1.5
			c-0.1-0.4-0.2-0.7-0.3-1l0,0c-0.1,0.3-0.2,0.7-0.3,1L67.1,37L68.8,36.9L68.8,36.9z"/>
		<path id="svg_28" class="st5" d="M71.4,34.3h-1.7v-0.6h4v0.6H72v4.8h-0.6V34.3z"/>
		<path id="svg_29" class="st5" d="M75.1,33.7v5.5h-0.7v-5.5H75.1z"/>
		<path id="svg_30" class="st5" d="M78.5,39.3c-1.4,0-2.4-1.1-2.4-2.8s1.1-2.9,2.5-2.9c1.5,0,2.5,1.1,2.5,2.8
			C81,38.3,79.9,39.3,78.5,39.3L78.5,39.3z M78.5,38.7c1.1,0,1.7-1,1.7-2.3c0-1.1-0.6-2.2-1.7-2.2s-1.8,1.1-1.8,2.3
			C76.8,37.6,77.4,38.7,78.5,38.7L78.5,38.7z"/>
		<path id="svg_31" class="st5" d="M81.9,39.2v-5.5h0.8l1.7,2.8c0.4,0.6,0.7,1.2,1,1.8l0,0c-0.1-0.7-0.1-1.4-0.1-2.2v-2.3H86v5.5
			h-0.7l-1.7-2.9c-0.4-0.6-0.7-1.2-1-1.8l0,0c0,0.7,0,1.3,0,2.2v2.3L81.9,39.2L81.9,39.2z"/>
		<path id="svg_32" class="st5" d="M88.9,33.8c0.4-0.1,0.9-0.1,1.5-0.1c1,0,1.7,0.2,2.2,0.7c0.5,0.4,0.8,1.1,0.8,2s-0.3,1.6-0.8,2.1
			s-1.4,0.8-2.4,0.8c-0.5,0-0.9,0-1.3-0.1L88.9,33.8L88.9,33.8z M89.7,38.6c0.2,0,0.4,0,0.7,0c1.5,0,2.3-0.8,2.3-2.3
			c0-1.3-0.7-2.1-2.2-2.1c-0.4,0-0.6,0-0.8,0.1V38.6z"/>
		<path id="svg_33" class="st5" d="M95.3,33.6c-0.2,0.7-0.5,1.6-0.8,1.9H94c0.2-0.5,0.4-1.3,0.5-1.9H95.3z"/>
		<path id="svg_34" class="st5" d="M97,37.5l-0.6,1.7h-0.7l1.9-5.5h0.9l1.9,5.5h-0.8L99,37.5H97z M98.8,36.9l-0.5-1.6
			c-0.1-0.4-0.2-0.7-0.3-1l0,0c-0.1,0.3-0.2,0.7-0.3,1l-0.5,1.6H98.8z"/>
		<path id="svg_35" class="st5" d="M101,33.8c0.3-0.1,0.8-0.1,1.4-0.1c0.7,0,1.2,0.2,1.5,0.5s0.5,0.7,0.5,1.1c0,0.5-0.1,0.9-0.4,1.2
			c-0.4,0.4-1,0.6-1.7,0.6c-0.2,0-0.4,0-0.6,0v2.2H101L101,33.8L101,33.8z M101.7,36.4c0.2,0,0.4,0.1,0.6,0.1c0.9,0,1.4-0.4,1.4-1.2
			s-0.5-1.1-1.3-1.1c-0.3,0-0.5,0-0.7,0.1V36.4L101.7,36.4z"/>
		<path id="svg_36" class="st5" d="M105.3,33.8c0.3-0.1,0.8-0.1,1.4-0.1c0.7,0,1.2,0.2,1.5,0.5s0.5,0.7,0.5,1.1
			c0,0.5-0.1,0.9-0.4,1.2c-0.4,0.4-1,0.6-1.7,0.6c-0.2,0-0.4,0-0.6,0v2.2h-0.7L105.3,33.8L105.3,33.8z M106,36.4
			c0.2,0,0.4,0.1,0.6,0.1c0.9,0,1.4-0.4,1.4-1.2s-0.5-1.1-1.3-1.1c-0.3,0-0.5,0-0.7,0.1V36.4L106,36.4z"/>
		<path id="svg_37" class="st5" d="M109.8,37.5l-0.6,1.7h-0.7l1.9-5.5h0.9l1.9,5.5h-0.8l-0.6-1.7H109.8z M111.6,36.9l-0.5-1.6
			c-0.1-0.4-0.2-0.7-0.3-1l0,0c-0.1,0.3-0.2,0.7-0.3,1l-0.5,1.6H111.6z"/>
		<path id="svg_38" class="st5" d="M113.8,33.8c0.4-0.1,0.9-0.1,1.4-0.1c0.8,0,1.2,0.1,1.6,0.5c0.3,0.2,0.4,0.6,0.4,1
			c0,0.7-0.5,1.2-1,1.4l0,0c0.4,0.1,0.7,0.5,0.8,1.1c0.2,0.8,0.3,1.3,0.4,1.5h-0.7c-0.1-0.2-0.2-0.6-0.4-1.3c-0.2-0.7-0.5-1-1.1-1.1
			h-0.7v2.4h-0.7L113.8,33.8L113.8,33.8z M114.5,36.3h0.7c0.8,0,1.2-0.4,1.2-1c0-0.7-0.5-1-1.3-1c-0.3,0-0.6,0-0.7,0.1L114.5,36.3
			L114.5,36.3z"/>
		<path id="svg_39" class="st5" d="M121,36.6h-2.1v2h2.4v0.6h-3.1v-5.5h2.9v0.6h-2.2V36h2.1C121,36,121,36.6,121,36.6z"/>
		<path id="svg_40" class="st5" d="M122.9,33.7v5.5h-0.7v-5.5C122.2,33.7,122.9,33.7,122.9,33.7z"/>
		<path id="svg_41" class="st5" d="M124.1,33.7h0.7v4.9h2.3v0.6h-3V33.7L124.1,33.7z"/>
		<path id="svg_42" class="st5" d="M127.8,38.3c0.3,0.2,0.8,0.4,1.3,0.4c0.7,0,1.1-0.4,1.1-0.9s-0.3-0.8-1-1.1
			c-0.9-0.3-1.4-0.8-1.4-1.6c0-0.9,0.7-1.5,1.8-1.5c0.5,0,1,0.1,1.2,0.3l-0.2,0.6c-0.2-0.1-0.5-0.3-1-0.3c-0.7,0-1,0.4-1,0.8
			c0,0.5,0.3,0.8,1.1,1c0.9,0.4,1.4,0.8,1.4,1.6s-0.6,1.6-1.9,1.6c-0.5,0-1.1-0.2-1.4-0.4V38.3z"/>
		<path id="svg_43" class="st5" d="M133.6,33.8c0.4-0.1,0.9-0.1,1.5-0.1c1,0,1.7,0.2,2.2,0.7c0.5,0.4,0.8,1.1,0.8,2
			s-0.3,1.6-0.8,2.1s-1.4,0.8-2.4,0.8c-0.5,0-0.9,0-1.3-0.1V33.8L133.6,33.8z M134.3,38.6c0.2,0,0.4,0,0.7,0c1.5,0,2.3-0.8,2.3-2.3
			c0-1.3-0.7-2.1-2.2-2.1c-0.4,0-0.6,0-0.8,0.1V38.6z"/>
		<path id="svg_44" class="st5" d="M139.9,33.6c-0.2,0.7-0.5,1.6-0.8,1.9h-0.5c0.2-0.5,0.4-1.3,0.5-1.9H139.9z"/>
		<path id="svg_45" class="st5" d="M143.6,36.6h-2.1v2h2.4v0.6h-3.1v-5.5h2.9v0.6h-2.2V36h2.1L143.6,36.6L143.6,36.6z"/>
		<path id="svg_46" class="st5" d="M148.5,39c-0.3,0.1-0.8,0.3-1.4,0.3c-1.5,0-2.7-1-2.7-2.8c0-1.7,1.2-2.9,2.8-2.9
			c0.7,0,1.1,0.1,1.3,0.2l-0.2,0.6c-0.3-0.1-0.6-0.2-1.1-0.2c-1.3,0-2.1,0.8-2.1,2.2c0,1.3,0.8,2.2,2.1,2.2c0.4,0,0.9-0.1,1.2-0.2
			L148.5,39z"/>
		<path id="svg_47" class="st5" d="M149.4,33.7h0.7v4.9h2.3v0.6h-3V33.7L149.4,33.7z"/>
		<path id="svg_48" class="st5" d="M154.1,37.5l-0.6,1.7h-0.7l1.9-5.5h0.9l1.9,5.5h-0.8l-0.6-1.7H154.1z M155.9,36.9l-0.5-1.5
			c-0.1-0.4-0.2-0.7-0.3-1l0,0c-0.1,0.3-0.2,0.7-0.3,1l-0.5,1.6L155.9,36.9L155.9,36.9z"/>
		<path id="svg_49" class="st5" d="M158.9,33.7v5.5h-0.7v-5.5H158.9z"/>
		<path id="svg_50" class="st5" d="M160.1,33.8c0.4-0.1,0.9-0.1,1.4-0.1c0.8,0,1.2,0.1,1.6,0.5c0.3,0.2,0.4,0.6,0.4,1
			c0,0.7-0.5,1.2-1,1.4l0,0c0.4,0.1,0.7,0.5,0.8,1.1c0.2,0.8,0.3,1.3,0.4,1.5H163c-0.1-0.2-0.2-0.6-0.4-1.3s-0.5-1-1.1-1.1h-0.7v2.4
			h-0.7V33.8L160.1,33.8z M160.8,36.3h0.7c0.8,0,1.2-0.4,1.2-1c0-0.7-0.5-1-1.3-1c-0.3,0-0.6,0-0.7,0.1L160.8,36.3L160.8,36.3z"/>
		<path id="svg_51" class="st5" d="M165.4,37.5l-0.6,1.7h-0.7l1.9-5.5h0.9l1.9,5.5h-0.7l-0.6-1.7H165.4z M167.2,36.9l-0.5-1.6
			c-0.1-0.4-0.2-0.7-0.3-1l0,0c-0.1,0.3-0.2,0.7-0.3,1l-0.5,1.6H167.2z"/>
		<path id="svg_52" class="st5" d="M173.5,39c-0.3,0.1-0.9,0.3-1.7,0.3s-1.5-0.2-2-0.7s-0.8-1.2-0.8-2c0-1.6,1.1-2.8,2.9-2.8
			c0.6,0,1.1,0.1,1.4,0.2l-0.2,0.6c-0.3-0.1-0.7-0.2-1.2-0.2c-1.3,0-2.2,0.8-2.2,2.2s0.8,2.2,2.1,2.2c0.5,0,0.8-0.1,0.9-0.1v-1.6
			h-1.1v-0.6h1.8L173.5,39L173.5,39z"/>
		<path id="svg_53" class="st5" d="M177.4,36.6h-2.1v2h2.4v0.6h-3.1v-5.5h2.9v0.6h-2.2V36h2.1L177.4,36.6L177.4,36.6z"/>
	</g>
	<g id="svg_54">
		<g id="svg_55">
			<path id="SVGID_3_" class="st3" d="M15.8,8.2C7.4,8.3,0.6,15.1,0.5,23.5v0.3c0.1,8.3,6.8,15.1,15.1,15.3h0.7
				c8.3-0.2,15-7,15.1-15.3v-0.3c-0.2-8.4-7-15.2-15.4-15.3H15.8z"/>
		</g>
		<g id="svg_56">
			<g>
				<defs>
					<path id="SVGID_7_" d="M15.8,8.2C7.4,8.3,0.6,15.1,0.5,23.5v0.3c0.1,8.3,6.8,15.1,15.1,15.3h0.7c8.3-0.2,15-7,15.1-15.3v-0.3
						c-0.2-8.4-7-15.2-15.4-15.3H15.8z"/>
				</defs>
				<clipPath id="SVGID_8_">
					<use xlink:href="#SVGID_7_"  style="overflow:visible;"/>
				</clipPath>
				<rect id="svg_58" x="0.5" y="8.2" class="st6" width="30.8" height="30.9"/>
			</g>
		</g>
		<g id="svg_59">
			<path id="SVGID_1_" class="st7" d="M15.8,8.2C7.4,8.3,0.6,15.1,0.5,23.5v0.3c0.1,8.3,6.8,15.1,15.1,15.3h0.7
				c8.3-0.2,15-7,15.1-15.3v-0.3c-0.2-8.4-7-15.2-15.4-15.3H15.8z"/>
		</g>
	</g>
	<g id="svg_60">
		<path id="svg_61" class="st8" d="M3.4,33.4c0,0,9.3-12.3,9.5-12.5c0.2-0.2,1.7-2.3,3.2-0.6c0,0,0.7,0.3,0.5,5.7
			c0,0,0.1,2.7,0.3,4.4c0,0,3.6-5.1,3.8-5.3c0.3-0.2,2.2-2.8,3.1-1.7c0.9,1.1,0.5,6.8,0.5,6.8s-0.3,4.5,3.9,2.3c0,0-0.7,1-1.3,1.6
			c-0.6,0.6-3.2,0.7-3.2,0.6c-0.1-0.1-1.6,0-1.4-2.2s0.1-3.4,0.5-7.2c0,0-4.1,6-5.5,7.1s-3.9-0.3-3.5-3l0.7-7.3l-4.9,6.7
			c0,0-3.2,5.9-4.3,5.7c0,0-0.8,0.1-1.2-0.1C4.3,34.3,3.7,33.8,3.4,33.4"/>
	</g>
</g>
</svg>
